<?xml version="1.0" standalone="no"?><!DOCTYPE svg PUBLIC "-//W3C//DTD SVG 1.1//EN" "http://www.w3.org/Graphics/SVG/1.1/DTD/svg11.dtd"><svg t="1621755484409" class="icon" viewBox="0 0 1024 1024" version="1.1" xmlns="http://www.w3.org/2000/svg" p-id="1185" xmlns:xlink="http://www.w3.org/1999/xlink" width="200" height="200"><defs><style type="text/css"></style></defs><path d="M787.52128 454.80064c12.71424-17.32096 20.31872-38.63552 20.31872-61.77152 0-57.79584-46.85312-104.64128-104.64-104.64128-27.33312 0-52.13184 10.56-70.78272 27.72736-32.74112-72.84224-105.78176-123.64672-190.81856-123.64672-115.58016 0-209.28 93.69728-209.28 209.28 0 18.2912 2.58944 35.936 6.99136 52.84736-101.06112 5.4592-181.39008 88.896-181.39008 191.31264 0 105.95072 85.89696 191.84 191.84 191.84h523.2c105.95072 0 191.83872-85.88928 191.83872-191.84 0.00128-101.03808-78.15424-183.63904-177.27744-191.10784" fill="#FFFFFF" p-id="1186"></path><path d="M118.36416 785.4272c34.34368 32.35072 80.49024 52.32128 131.39712 52.32128h523.2c50.9056 0 97.05088-19.97056 131.38688-52.32128H118.36416z" fill="#86AEDD" p-id="1187"></path><path d="M293.36064 785.4272h17.44v-17.43872h-17.44v17.43872z m34.88 0h17.44128v-17.43872h-17.44128v17.43872z m-69.76128 0h17.44128v-17.43872h-17.44128v17.43872z m-139.51872 0h17.44v-17.43872H118.96064v17.43872z m313.92 0h17.44v-17.43872h-17.44v17.43872z m-209.28 0h17.43872v-17.43872h-17.43872v17.43872z m139.52 0h17.44v-17.43872h-17.44v17.43872z m34.88 0h17.44v-17.43872h-17.44v17.43872z m-226.72-17.43872h17.44v-17.43872h-17.44v17.43872z m732.48 0h17.18528c0.09216-0.1024 0.17024-0.22144 0.256-0.3328v-17.10592h-17.44128v17.43872z m-715.04 17.43872h17.44v-17.43872h-17.44v17.43872z m540.64-17.43872h17.44v-17.43872h-17.44v17.43872z m-558.08 0h-17.44v17.43872h17.44v-17.43872z m34.88 0h17.44128v-17.43872h-17.44128v17.43872z m261.6 17.43872h17.43872v-17.43872h-17.43872v17.43872z m453.44-52.31872v17.44128h12.4224c1.76256-2.69312 3.3984-5.46688 5.01632-8.25216v-9.18912h-17.43872z m-715.04 0h-17.44v17.44128h17.44v-17.44128z m575.52 52.31872h17.44128v-17.43872h-17.44128v17.43872z m34.88 0h17.44128v-17.43872h-17.44128v17.43872z m69.76 0h17.44v-17.43872h-17.44v17.43872z m-34.88 0h17.44v-17.43872h-17.44v17.43872z m-715.04-52.31872H118.96064v17.44128h17.44v-17.44128z m104.64 34.88h17.44v-17.43872h-17.44v17.43872z m-87.2-17.43872h17.44v-17.44128h-17.44v17.44128z m-52.32 0v17.10592c0.08576 0.11136 0.16128 0.2304 0.256 0.3328h17.184v-17.43872H101.52064z m34.88 17.43872h17.44v-17.43872h-17.44v17.43872z m575.52 17.43872h17.43872v-17.43872h-17.43872v17.43872z m-104.64 0h17.44v-17.43872h-17.44v17.43872z m-34.88 0h17.44128v-17.43872h-17.44128v17.43872z m-34.88 0h17.44128v-17.43872h-17.44128v17.43872z m-453.44-52.31872v9.18912c1.61792 2.78528 3.25376 5.56032 5.01632 8.25216h12.42368v-17.44128H84.08064z m662.72 52.31872h17.44v-17.43872h-17.44v17.43872z m-104.64 0h17.44v-17.43872h-17.44v17.43872z m-139.52128-0.22144c2.89536 0.13696 17.44 0.22144 17.44 0.22144v-17.43872h-17.44v17.21728z m174.40128 0.22144h17.43872v-17.43872h-17.43872v17.43872z m-436-52.31872h-17.43872v17.44128h17.43872v-17.44128z m313.92 34.88h17.43872v-17.43872h-17.43872v17.43872z m34.88-34.88h-17.44128v17.44128h17.44128v-17.44128z m-69.76 0h-17.44v17.44128h17.44v-17.44128z m104.64 0h-17.44v17.44128h17.44v-17.44128z m-34.88 34.88h17.43872v-17.43872h-17.43872v17.43872z m244.16-34.88h-17.44128v17.44128h17.44128v-17.44128z m-34.88 34.88h17.43872v-17.43872h-17.43872v17.43872z m-279.04 0h17.44v-17.43872h-17.44v17.43872z m34.88-34.88h-17.44128v17.44128h17.44128v-17.44128z m244.16 0h-17.44128v17.44128h17.44128v-17.44128z m-174.4 34.88h17.44v-17.43872h-17.44v17.43872z m69.76-34.88h-17.43872v17.44128h17.43872v-17.44128z m34.88 0h-17.43872v17.44128h17.43872v-17.44128z m34.88 0h-17.44v17.44128h17.44v-17.44128z m-69.76 34.88h17.44128v-17.43872h-17.44128v17.43872z m-34.88-34.88h-17.44v17.44128h17.44v-17.44128z m0 34.88h17.44128v-17.43872h-17.44128v17.43872z m104.64 0h17.44v-17.43872h-17.44v17.43872z m-348.8 0h17.44v-17.43872h-17.44v17.43872z m-69.76-34.88h-17.44128v17.44128h17.44128v-17.44128z m523.2 34.88h17.44v-17.43872h-17.44v17.43872z m-523.2 0h17.43872v-17.43872h-17.43872v17.43872z m34.87872-34.88h-17.44v17.44128h17.44v-17.44128z m-69.75872 34.88h17.44v-17.43872h-17.44v17.43872z m-34.88 0h17.44v-17.43872h-17.44v17.43872z m627.84-34.88h-17.44v17.44128h17.44v-17.44128z m-592.96 0h-17.44v17.44128h17.44v-17.44128z m523.2 34.88h17.43872v-17.43872h-17.43872v17.43872z m-383.68-34.88h-17.44v17.44128h17.44v-17.44128z m0 34.88h17.44128v-17.43872h-17.44128v17.43872z m34.88 0h17.44v-17.43872h-17.44v17.43872z m-104.64128 0h17.44128v-17.43872h-17.44128v17.43872z m104.64128-34.88h-17.43872v17.44128h17.43872v-17.44128z m-69.76 0h-17.44v17.44128h17.44v-17.44128z m453.44 0h-17.44v17.44128h17.44v-17.44128z m-592.96 0h-17.44128v17.44128h17.44128v-17.44128z" fill="" p-id="1188"></path><path d="M40.48 637.18912h104.64v-17.44h-104.64v17.44z m0 34.88H92.8v-17.44H40.48v17.44zM720.64 419.18848h104.64v-17.44H720.64v17.44z m52.32128-34.88h52.31872v-17.44h-52.31872v17.44z" fill="" p-id="1189"></path><path d="M838.05312 428.71808a139.3024 139.3024 0 0 0 4.66688-35.68768c0-77.05856-62.46272-139.52-139.52-139.52-20.864 0-40.59392 4.70912-58.3744 12.92672-43.7696-65.6128-118.44224-108.84608-203.2256-108.84608-134.84544 0-244.15872 109.31456-244.15872 244.16 0 7.86816 0.40832 15.63392 1.13152 23.3152C98.01984 448.27776 23.04 538.30528 23.04 645.90848c0 125.21216 101.50656 226.72128 226.72 226.72128h523.2c125.21216 0 226.71872-101.50912 226.71872-226.72128 0.00128-102.5792-68.14976-189.20832-161.6256-217.1904m-65.09184 409.0304h-523.2c-105.952 0-191.84-85.88928-191.84-191.84 0-102.34112 80.1408-185.94688 181.07648-191.52512a209.86112 209.86112 0 0 1-6.67648-52.63488c0-115.58272 93.69856-209.28 209.28-209.28 85.02784 0 158.16192 50.74432 190.90304 123.56096 18.64192-17.1072 43.4048-27.6416 70.69696-27.6416 57.78688 0 104.64 46.85312 104.64 104.64128 0 23.0848-7.56224 44.34944-20.22528 61.65248 99.09632 7.4944 177.18528 90.2144 177.18528 191.22688-0.00128 105.952-85.88928 191.84-191.84 191.84" fill="" p-id="1190"></path></svg>